<?xml version="1.0" encoding="UTF-8" standalone="no"?>
<!-- Created with Inkscape (http://www.inkscape.org/) -->

<svg
   version="1.1"
   id="svg182"
   width="489"
   height="277"
   viewBox="0 0 489 277"
   sodipodi:docname="catpictherapy.svg"
   inkscape:version="1.2.2 (732a01da63, 2022-12-09)"
   xmlns:inkscape="http://www.inkscape.org/namespaces/inkscape"
   xmlns:sodipodi="http://sodipodi.sourceforge.net/DTD/sodipodi-0.dtd"
   xmlns="http://www.w3.org/2000/svg"
   xmlns:svg="http://www.w3.org/2000/svg">
  <defs
     id="defs186">
    <inkscape:path-effect
       effect="bspline"
       id="path-effect392"
       is_visible="true"
       lpeversion="1"
       weight="33.333333"
       steps="2"
       helper_size="0"
       apply_no_weight="true"
       apply_with_weight="true"
       only_selected="false" />
    <inkscape:path-effect
       effect="bspline"
       id="path-effect1004"
       is_visible="true"
       lpeversion="1"
       weight="33.333333"
       steps="2"
       helper_size="0"
       apply_no_weight="true"
       apply_with_weight="true"
       only_selected="false" />
    <inkscape:path-effect
       effect="bspline"
       id="path-effect1008"
       is_visible="true"
       lpeversion="1"
       weight="33.333333"
       steps="2"
       helper_size="0"
       apply_no_weight="true"
       apply_with_weight="true"
       only_selected="false" />
    <inkscape:path-effect
       effect="bspline"
       id="path-effect1012"
       is_visible="true"
       lpeversion="1"
       weight="33.333333"
       steps="2"
       helper_size="0"
       apply_no_weight="true"
       apply_with_weight="true"
       only_selected="false" />
    <inkscape:path-effect
       effect="bspline"
       id="path-effect1016"
       is_visible="true"
       lpeversion="1"
       weight="33.333333"
       steps="2"
       helper_size="0"
       apply_no_weight="true"
       apply_with_weight="true"
       only_selected="false" />
    <inkscape:path-effect
       effect="bspline"
       id="path-effect1020"
       is_visible="true"
       lpeversion="1"
       weight="33.333333"
       steps="2"
       helper_size="0"
       apply_no_weight="true"
       apply_with_weight="true"
       only_selected="false" />
    <inkscape:path-effect
       effect="bspline"
       id="path-effect1024"
       is_visible="true"
       lpeversion="1"
       weight="33.333333"
       steps="2"
       helper_size="0"
       apply_no_weight="true"
       apply_with_weight="true"
       only_selected="false" />
    <inkscape:path-effect
       effect="bspline"
       id="path-effect1088"
       is_visible="true"
       lpeversion="1"
       weight="33.333333"
       steps="2"
       helper_size="0"
       apply_no_weight="true"
       apply_with_weight="true"
       only_selected="false" />
    <inkscape:path-effect
       effect="bspline"
       id="path-effect1092"
       is_visible="true"
       lpeversion="1"
       weight="33.333333"
       steps="2"
       helper_size="0"
       apply_no_weight="true"
       apply_with_weight="true"
       only_selected="false" />
    <inkscape:path-effect
       effect="bspline"
       id="path-effect1096"
       is_visible="true"
       lpeversion="1"
       weight="33.333333"
       steps="2"
       helper_size="0"
       apply_no_weight="true"
       apply_with_weight="true"
       only_selected="false" />
    <inkscape:path-effect
       effect="bspline"
       id="path-effect1100"
       is_visible="true"
       lpeversion="1"
       weight="33.333333"
       steps="2"
       helper_size="0"
       apply_no_weight="true"
       apply_with_weight="true"
       only_selected="false" />
    <rect
       x="186.25282"
       y="544.33893"
       width="505.88672"
       height="204.1694"
       id="rect1882" />
  </defs>
  <sodipodi:namedview
     id="namedview184"
     pagecolor="#505050"
     bordercolor="#eeeeee"
     borderopacity="1"
     inkscape:showpageshadow="0"
     inkscape:pageopacity="0"
     inkscape:pagecheckerboard="0"
     inkscape:deskcolor="#505050"
     showgrid="false"
     inkscape:zoom="0.68047035"
     inkscape:cx="387.23215"
     inkscape:cy="207.9444"
     inkscape:window-width="1920"
     inkscape:window-height="1001"
     inkscape:window-x="-9"
     inkscape:window-y="-9"
     inkscape:window-maximized="1"
     inkscape:current-layer="g188" />
  <g
     inkscape:groupmode="layer"
     inkscape:label="Image"
     id="g188">
    <g
       id="g372"
       transform="matrix(0.94658172,0.37430273,-0.36600425,0.96804376,1149.7596,2.3057422)">
      <path
         style="fill:none;stroke:#000000;stroke-width:3.0463;stroke-dasharray:none;stroke-opacity:1"
         d="m -812.06419,356.59234 c -2.62002,-3.39856 -6.86842,-9.48795 -8.74527,-12.88715 -1.87684,-3.39921 -1.38121,-4.10726 1.80582,-2.9033 3.18703,1.20396 9.06388,4.3194 12.2496,5.62901 3.18571,1.3096 3.68135,0.81396 6.72638,-0.46069 3.04503,-1.27464 8.63865,-3.328 11.75377,-5.16862 3.11513,-1.84063 3.75237,-3.46915 4.63751,-7.68209 0.88513,-4.21293 2.01801,-11.01024 2.90367,-14.40937 0.88566,-3.39913 1.52291,-3.39913 2.86794,-0.0351 1.34503,3.36398 3.39839,10.09049 4.56667,14.02027 1.16828,3.92978 1.4515,5.06267 3.39917,6.54935 1.94768,1.48667 5.55876,3.32762 7.96595,5.2397 2.4072,1.91208 3.6109,3.89463 4.88529,6.76236 1.2744,2.86772 2.6197,6.62041 3.43383,9.73589 0.81413,3.11547 1.09735,5.59366 1.2389,8.07187 0.14155,2.47821 0.14155,4.9564 -0.42502,7.39898 -0.56657,2.44257 -1.69945,4.84995 -2.1949,6.47887 -0.49545,1.62892 -0.35384,2.47858 0.99175,5.20471 1.34559,2.72614 3.89458,7.32849 5.34585,11.47067 1.45127,4.14219 1.80529,7.82407 1.87602,12.17867 0.0707,4.3546 -0.14168,9.38178 0.0711,12.42659 0.2128,3.04482 0.85005,4.1069 5.62984,6.83271 4.77979,2.72581 13.70127,7.11575 18.65754,10.05452 4.95627,2.93878 5.94755,4.4257 6.62005,5.66485 0.67249,1.23915 1.02652,2.23042 0.53064,3.43357 -0.49589,1.20314 -1.84119,2.61925 -4.35433,3.22112 -2.51315,0.60188 -6.19503,0.38946 -10.3372,-0.92021 -4.14217,-1.30967 -8.74452,-3.71705 -12.78054,-5.55813 -4.03602,-1.84108 -7.50548,-3.11558 -10.3381,-3.32831 -2.83263,-0.21274 -5.02761,0.63692 -6.12538,2.08909 -1.09777,1.45216 -1.09777,3.50551 1.41653,5.41703 2.51429,1.91151 7.54147,3.68164 11.93152,5.06233 4.39005,1.38069 8.14273,2.37197 10.26648,3.93016 2.12376,1.5582 2.6194,3.68236 2.90251,5.5587 0.28311,1.87633 0.35392,3.50485 -1.1326,4.3894 -1.48652,0.88454 -4.53115,1.02615 -8.95651,-0.38969 -4.42536,-1.41584 -10.2314,-4.38966 -14.33821,-6.30155 -4.10682,-1.91188 -6.51421,-2.76155 -11.47129,-0.28352 -4.95708,2.47803 -12.46245,8.28407 -16.74612,11.43493 -4.28367,3.15086 -5.34575,3.6465 -5.98327,5.38186 -0.63751,1.73536 -0.84993,4.70918 -0.51325,6.05395 0.33669,1.34477 1.22176,1.06155 5.18704,-0.0183 3.96529,-1.07981 11.01042,-2.95615 19.3834,-5.27511 8.37299,-2.31895 18.07333,-5.08036 26.49936,-7.78876 8.42602,-2.70839 15.57736,-5.36359 19.98526,-6.79738 4.40789,-1.4338 6.07182,-1.64622 7.31092,-1.18534 1.23911,0.46088 2.05337,1.59376 2.33613,3.1868 0.28277,1.59305 0.0349,3.6464 -2.31917,5.77009 -2.35411,2.1237 -6.81484,4.31866 -19.56017,8.67334 -12.74532,4.35469 -33.77452,10.86879 -46.90936,15.52436 -13.13485,4.65558 -18.37445,7.45239 -23.8796,9.71822 -5.50514,2.26584 -11.27578,4.00057 -16.9225,4.86805 -5.64672,0.86748 -11.16954,0.86748 -15.91353,0.19501 -4.74399,-0.67247 -8.7091,-2.01778 -12.92223,-4.8144 -4.21314,-2.79663 -8.67388,-7.04495 -11.75403,-10.12503 -3.08016,-3.08008 -4.77949,-4.99182 -7.54123,-10.97502 -2.76174,-5.98319 -6.58524,-16.03756 -8.21406,-23.82652 -1.62883,-7.78896 -1.06238,-13.31178 1.84081,-18.48119 2.9032,-5.16941 8.1428,-9.98418 15.43603,-16.10907 7.29324,-6.12489 16.63954,-13.55945 25.38434,-19.82594 8.74479,-6.26649 16.88741,-11.36448 22.30413,-14.83402 5.41672,-3.46954 8.10732,-5.31048 9.20482,-7.68189 1.09749,-2.37141 0.60185,-5.27443 -0.31833,-7.61109 -0.92017,-2.33665 -2.26547,-4.10678 -3.04474,-6.86832 -0.77927,-2.76154 -0.99169,-6.51422 -1.59302,-8.74476 -0.60133,-2.23054 -1.59261,-2.93859 -4.21263,-6.33715 z"
         id="path390"
         inkscape:path-effect="#path-effect392"
         inkscape:original-d="m -810.4366,359.28202 c -4.2474,-6.08839 -8.49581,-12.17777 -12.74522,-18.26816 0.49666,-0.70708 0.9923,-1.41513 1.48694,-2.1242 5.87808,3.11656 11.75493,6.232 17.63089,9.3465 0.49666,-0.49466 0.9923,-0.9903 1.48695,-1.48695 5.59485,-2.05244 11.18847,-4.10579 16.78121,-6.16019 0.63827,-1.62759 1.27552,-3.25611 1.91178,-4.88567 1.13393,-6.79659 2.26682,-13.5939 3.39873,-20.39235 0.63827,0.001 1.27552,0.001 1.91178,0 2.05444,6.72778 4.10779,13.45429 6.16019,20.17993 0.28423,1.13393 0.56746,2.26682 0.84968,3.39873 3.61222,1.84201 7.2233,3.68295 10.83344,5.52293 1.20474,1.98363 2.40843,3.96618 3.61115,5.94777 1.34635,3.75383 2.69166,7.50652 4.03599,11.25828 0.28423,2.47929 0.56745,4.95748 0.84968,7.43471 0.001,2.47929 0.001,4.95748 0,7.43472 -1.13193,2.40848 -2.26482,4.81586 -3.39873,7.22229 0.14262,0.8507 0.28423,1.70036 0.42484,2.54904 2.5501,4.60354 5.09909,9.20589 7.64714,13.80733 0.35504,3.68303 0.70906,7.36491 1.0621,11.04586 -0.21143,5.02838 -0.42384,10.05556 -0.63726,15.08185 0.63827,1.06312 1.27552,2.1252 1.91178,3.1863 8.92283,4.39111 17.84431,8.78104 26.76497,13.17007 0.99231,1.48797 1.98359,2.97488 2.97388,4.46082 0.35504,0.99232 0.70907,1.98359 1.06211,2.97389 -1.34436,1.41716 -2.68966,2.83327 -4.03599,4.24841 -3.68103,-0.21143 -7.36291,-0.42384 -11.04586,-0.63726 -4.60154,-2.40648 -9.20388,-4.81387 -13.80733,-7.2223 -3.4686,-1.27355 -6.93806,-2.54804 -10.40859,-3.82356 -2.19406,0.85069 -4.38903,1.70036 -6.58504,2.54904 10e-4,2.05444 10e-4,4.10779 0,6.16019 5.02839,1.77121 10.05557,3.54134 15.08185,5.31051 3.75384,0.99232 7.50652,1.98359 11.25828,2.97389 0.49666,2.12524 0.9923,4.2494 1.48694,6.37261 0.0718,1.62959 0.14262,3.25811 0.21242,4.88567 -3.04375,0.14261 -6.08838,0.28422 -9.13407,0.42484 -5.80528,-2.97295 -11.61132,-5.94677 -17.41847,-8.92166 -2.40648,-0.8487 -4.81387,-1.69836 -7.2223,-2.54904 -7.50467,5.80727 -15.01004,11.61331 -22.51656,17.41847 -1.06112,0.49666 -2.1232,0.99229 -3.1863,1.48694 -0.21143,2.97495 -0.42384,5.94877 -0.63727,8.92166 0.88611,-0.28224 1.77118,-0.56546 2.65526,-0.84968 7.04642,-1.87542 14.09155,-3.75176 21.13583,-5.62914 9.70172,-2.76052 19.40206,-5.52193 29.10159,-8.2844 7.15263,-2.65431 14.30397,-5.30951 21.45446,-7.96576 1.66499,-0.21143 3.32892,-0.42384 4.99188,-0.63727 0.81529,1.13394 1.62955,2.26682 2.44283,3.39873 -0.24683,2.05444 -0.49464,4.10779 -0.74347,6.16019 -4.45992,2.19606 -8.92065,4.39102 -13.38248,6.58503 -21.02904,6.51536 -42.05824,13.02945 -63.08886,19.54268 -5.2388,2.79792 -10.4784,5.59474 -15.7191,8.3906 -5.76987,1.73581 -11.54051,3.47054 -17.31227,5.2043 -5.52204,0.001 -11.04486,0.001 -16.56879,0 -3.96425,-1.34435 -7.92936,-2.68965 -11.89554,-4.03598 -4.45991,-4.2475 -8.92065,-8.49582 -13.38248,-12.74523 -1.6984,-1.91082 -3.39773,-3.82256 -5.09809,-5.73535 -3.82264,-10.05376 -7.64613,-20.10813 -11.4707,-30.16369 0.56746,-5.52204 1.13391,-11.04486 1.69936,-16.56879 5.24081,-4.81396 10.48041,-9.62873 15.71911,-14.44459 9.34768,-7.43386 18.69399,-14.86842 28.03949,-22.30414 8.14394,-5.09719 16.28656,-10.19518 24.42834,-15.29427 2.69172,-1.84001 5.38232,-3.68095 8.07198,-5.52293 -0.49466,-2.90213 -0.9903,-5.80515 -1.48694,-8.70923 -1.34436,-1.76921 -2.68966,-3.53934 -4.03599,-5.31051 -0.21142,-3.75184 -0.42384,-7.50452 -0.63726,-11.25828 -0.99032,-0.70708 -1.98159,-1.41514 -2.97389,-2.1242 z" />
      <path
         style="fill:none;stroke:#000000;stroke-width:3.0463;stroke-linecap:round;stroke-linejoin:bevel;stroke-dasharray:none;stroke-opacity:1"
         d="m -764.55379,353.75909 c 1.62836,-2.97354 3.25692,-5.94743 6.01853,-9.27558 2.76162,-3.32814 6.65591,-7.01001 10.72745,-10.26722 4.07153,-3.2572 8.31985,-6.08942 12.56803,-8.92154"
         id="path1002"
         inkscape:path-effect="#path-effect1004"
         inkscape:original-d="m -764.55379,353.75909 c 1.62955,-2.97289 3.25811,-5.94678 4.88566,-8.92166 3.89546,-3.68103 7.78975,-7.36291 11.68313,-11.04586 4.24949,-2.83133 8.49781,-5.66354 12.74522,-8.49682" />
      <path
         style="fill:none;stroke:#000000;stroke-width:3.0463;stroke-linecap:round;stroke-linejoin:bevel;stroke-dasharray:none;stroke-opacity:1"
         d="m -761.57991,359.0696 c 3.8947,-2.1952 7.78908,-4.39022 11.08178,-5.87717 3.29271,-1.48695 5.98332,-2.26581 8.67332,-3.04449"
         id="path1006"
         inkscape:path-effect="#path-effect1008"
         inkscape:original-d="m -761.57991,359.0696 c 3.89537,-2.19402 7.78975,-4.38903 11.68312,-6.58504 2.69171,-0.77789 5.38232,-1.55675 8.07198,-2.33662" />
      <path
         style="fill:none;stroke:#000000;stroke-width:3.0463;stroke-linecap:round;stroke-linejoin:bevel;stroke-dasharray:none;stroke-opacity:1"
         d="m -756.69424,365.44221 c 6.86911,-0.9206 13.73737,-1.84109 19.08317,-3.00947 5.3458,-1.16837 9.16929,-2.58448 12.35565,-3.71739 3.18635,-1.13291 5.73535,-1.98258 8.28379,-2.83206"
         id="path1010"
         inkscape:path-effect="#path-effect1012"
         inkscape:original-d="m -756.69424,365.44221 c 6.86926,-0.91949 13.73752,-1.83998 20.60478,-2.76147 3.82464,-1.41516 7.64813,-2.83127 11.4707,-4.24841 2.55009,-0.84869 5.09909,-1.69836 7.64713,-2.54904" />
      <path
         style="fill:none;stroke:#000000;stroke-width:3.0463;stroke-linecap:round;stroke-linejoin:bevel;stroke-dasharray:none;stroke-opacity:1"
         d="m -798.11621,367.99125 c -4.46003,0.77874 -8.92086,1.55761 -13.20476,2.47809 -4.28391,0.92048 -8.39062,1.98256 -11.754,2.90305 -3.36337,0.92049 -5.98316,1.69935 -8.60366,2.47842"
         id="path1014"
         inkscape:path-effect="#path-effect1016"
         inkscape:original-d="m -798.11621,367.99125 c -4.45983,0.77988 -8.92066,1.55875 -13.38249,2.33663 -4.10587,1.06312 -8.21259,2.1252 -12.32038,3.1863 -2.61891,0.77989 -5.2387,1.55875 -7.85955,2.33663" />
      <path
         style="fill:none;stroke:#000000;stroke-width:3.0463;stroke-linecap:round;stroke-linejoin:bevel;stroke-dasharray:none;stroke-opacity:1"
         d="m -797.69137,376.91291 c -6.86763,2.12401 -13.73589,4.24821 -17.73667,5.66437 -4.00077,1.41615 -5.13366,2.1242 -6.26684,2.83244"
         id="path1018"
         inkscape:path-effect="#path-effect1020"
         inkscape:original-d="m -797.69137,376.91291 c -6.86726,2.1252 -13.73552,4.24941 -20.60478,6.37261 -1.13193,0.70908 -2.26482,1.41713 -3.39873,2.1242" />
      <path
         style="fill:none;stroke:#000000;stroke-width:3.0463;stroke-linecap:round;stroke-linejoin:bevel;stroke-dasharray:none;stroke-opacity:1"
         d="m -790.6815,381.16132 c -6.37271,7.93048 -12.74532,15.86084 -19.11784,23.79108"
         id="path1022"
         inkscape:path-effect="#path-effect1024"
         inkscape:original-d="m -790.6815,381.16132 c -6.37161,7.93136 -12.74422,15.86172 -19.11784,23.79108" />
      <path
         style="fill:#000000;fill-opacity:1;stroke:#000000;stroke-width:3.0463;stroke-linecap:round;stroke-linejoin:bevel;stroke-dasharray:none;stroke-opacity:1"
         id="path1078"
         sodipodi:type="arc"
         sodipodi:cx="-775.0686"
         sodipodi:cy="355.0336"
         sodipodi:rx="1.8055732"
         sodipodi:ry="1.6993631"
         sodipodi:start="0"
         sodipodi:end="6.2281214"
         sodipodi:open="true"
         sodipodi:arc-type="arc"
         d="m -773.26303,355.0336 a 1.8055732,1.6993631 0 0 1 -1.78072,1.6992 1.8055732,1.6993631 0 0 1 -1.82974,-1.65242 1.8055732,1.6993631 0 0 1 1.73034,-1.74469 1.8055732,1.6993631 0 0 1 1.87738,1.60438" />
      <path
         style="fill:none;stroke:#000000;stroke-width:3.0463;stroke-linecap:round;stroke-linejoin:bevel;stroke-dasharray:none;stroke-opacity:1"
         id="path1080"
         sodipodi:type="arc"
         sodipodi:cx="-791.53119"
         sodipodi:cy="361.83105"
         sodipodi:rx="1.4869426"
         sodipodi:ry="1.6993631"
         sodipodi:start="0"
         sodipodi:end="6.2281214"
         sodipodi:open="true"
         sodipodi:arc-type="arc"
         d="m -790.04425,361.83105 a 1.4869426,1.6993631 0 0 1 -1.46647,1.69921 1.4869426,1.6993631 0 0 1 -1.50685,-1.65242 1.4869426,1.6993631 0 0 1 1.42499,-1.7447 1.4869426,1.6993631 0 0 1 1.54608,1.60439" />
      <path
         style="fill:none;stroke:#000000;stroke-width:3.0463;stroke-linecap:round;stroke-linejoin:bevel;stroke-dasharray:none;stroke-opacity:1"
         id="path1084"
         sodipodi:type="arc"
         sodipodi:cx="-779.96936"
         sodipodi:cy="363.71597"
         sodipodi:rx="1.351835"
         sodipodi:ry="1.6146919"
         sodipodi:start="0"
         sodipodi:end="6.2281214"
         sodipodi:open="true"
         sodipodi:arc-type="arc"
         d="m -778.61753,363.71597 a 1.351835,1.6146919 0 0 1 -1.33322,1.61454 1.351835,1.6146919 0 0 1 -1.36993,-1.57009 1.351835,1.6146919 0 0 1 1.29551,-1.65776 1.351835,1.6146919 0 0 1 1.4056,1.52445" />
      <path
         style="fill:none;stroke:#000000;stroke-width:3.0463;stroke-linecap:round;stroke-linejoin:bevel;stroke-dasharray:none;stroke-opacity:1"
         d="m -779.70455,366.34176 c 0.25061,1.07763 0.50095,2.1541 0.53826,2.91732 0.0373,0.76322 -0.13792,1.21382 -0.77614,1.88944 -0.63822,0.67561 -1.73969,1.57682 -2.8413,2.47813"
         id="path1086"
         inkscape:path-effect="#path-effect1088"
         inkscape:original-d="m -779.70455,366.34176 c 0.25134,1.07746 0.50168,2.15393 0.75102,3.22939 -0.17424,0.45162 -0.34947,0.90222 -0.52571,1.35183 -1.10052,0.90224 -2.20199,1.80345 -3.30449,2.70367" />
      <path
         style="fill:none;stroke:#000000;stroke-width:2.29039;stroke-linecap:round;stroke-linejoin:bevel;stroke-dasharray:none;stroke-opacity:1"
         d="m -779.37638,366.11646 c 0.35078,1.35301 0.70125,2.70485 1.96582,3.34261 1.26456,0.63776 3.44248,0.56266 5.61947,0.48759"
         id="path1090"
         inkscape:path-effect="#path-effect1092"
         inkscape:original-d="m -779.37638,366.11646 c 0.35147,1.35283 0.70195,2.70467 1.05142,4.0555 2.179,-0.0741 4.35692,-0.1492 6.53387,-0.2253" />
    </g>
    <path
       style="fill:none;fill-opacity:1;stroke:#000000;stroke-width:3.12647;stroke-linecap:round;stroke-linejoin:bevel;stroke-dasharray:none;stroke-opacity:1"
       d="m 214.4733,113.10854 c 3.72931,3.99665 7.45766,7.99227 9.81622,11.84054 2.35856,3.84826 3.34785,7.54865 3.79361,12.17675 0.44576,4.6281 0.34839,10.1837 -0.0856,14.8972 -0.43395,4.71351 -1.20424,8.5848 -2.29905,12.09141 -1.09481,3.5066 -2.51388,6.64858 -3.19278,8.54705 -0.6789,1.89848 -0.61812,2.55281 -0.55747,3.20581"
       id="path1094"
       inkscape:path-effect="#path-effect1096"
       inkscape:original-d="m 214.4733,113.10854 c 3.72896,3.99697 7.45731,7.9926 11.18508,11.98689 0.9899,3.70186 1.97918,7.40225 2.96791,11.10133 -0.0968,5.55718 -0.19415,11.11278 -0.29212,16.66715 -0.76973,3.87279 -1.54003,7.74408 -2.3109,11.61409 -1.41857,3.14349 -2.83764,6.28547 -4.25734,9.42619 0.0614,0.65573 0.12213,1.31007 0.18234,1.96311" />
    <path
       style="fill:none;fill-opacity:1;stroke:#000000;stroke-width:2.35067;stroke-linecap:round;stroke-linejoin:bevel;stroke-dasharray:none;stroke-opacity:1"
       d="m 211.10573,173.82543 c 1.88217,1.13843 3.76333,2.27626 6.05274,2.94494 2.28941,0.66869 4.98731,0.86882 7.68458,1.0689"
       id="path1098"
       inkscape:path-effect="#path-effect1100"
       inkscape:original-d="m 211.10573,173.82543 c 1.88173,1.13915 3.76289,2.27699 5.64346,3.41345 2.69859,0.20148 5.39649,0.4016 8.09386,0.60039" />
    <text
       xml:space="preserve"
       id="text1880"
       style="font-style:normal;font-variant:normal;font-weight:normal;font-stretch:normal;font-size:53.3333px;font-family:Candara;-inkscape-font-specification:Candara;letter-spacing:1.30564px;white-space:pre;shape-inside:url(#rect1882);fill:none;fill-opacity:1;stroke:#000000;stroke-width:0.30789677;stroke-linecap:round;stroke-linejoin:bevel;stroke-dasharray:none;stroke-opacity:1"
       transform="matrix(1.0148771,0,0,1.0378879,-132.46832,-443.66844)"><tspan
         x="186.25195"
         y="589.65232"
         id="tspan1419"><tspan
           style="fill:#000000"
           id="tspan1417">Cat 
</tspan></tspan><tspan
         x="186.25195"
         y="656.31894"
         id="tspan1423"><tspan
           style="fill:#000000"
           id="tspan1421">PicTherapy</tspan></tspan></text>
  </g>
</svg>
